# xmcd CD database file
#
# Track frame offsets:
#	150
#	16410
#	33483
#
# Disc length: 867 seconds
#
# Revision: 0
# Processed by: cddbd v1.4PL0 Copyright (c) Steve Scherf et al.
# Submitted via: CdAid 2001.05.15.01
#
DISCID=1b036103
DTITLE=Brandy - Full Moon (Single)
DYEAR=1900
DGENRE=
TTITLE0=Full Moon (Radio Mix)
TTITLE1=Full Moon (Album Version)
TTITLE2=Full Moon (Full Intention Club Mix)
EXTD=
EXTT0=
EXTT1=
EXTT2=
PLAYORDER=
